<svg xmlns="http://www.w3.org/2000/svg" version="1.1" viewBox="8.84 139 484.19 167.93">
<path d="M0 0 C2.34949701 1.85964049 4.05852258 3.69121604 6 6 C6.5775 5.690625 7.155 5.38125 7.75 5.0625 C9.84294184 4.07416636 11.74535275 3.4831387 14 3 C14 2.34 14 1.68 14 1 C22.27271024 -3.54999063 30.62478942 -5.18339055 40 -4 C44.16562354 -2.64143869 48.07793499 -0.94712447 52 1 C52 1.66 52 2.32 52 3 C52.60585937 3.25394531 53.21171875 3.50789062 53.8359375 3.76953125 C56.2813276 5.15996064 57.1734924 6.30421816 58.625 8.6875 C59.02976562 9.33074219 59.43453125 9.97398437 59.8515625 10.63671875 C62.96535867 17.04436053 63.27722847 22.86735804 63.1953125 29.87109375 C63.1924826 30.793423 63.18965271 31.71575226 63.18673706 32.66603088 C63.17560974 35.58999013 63.15051912 38.51363451 63.125 41.4375 C63.11496057 43.42903201 63.1058364 45.42056886 63.09765625 47.41210938 C63.07569483 52.2748595 63.04121673 57.1373765 63 62 C62.34 62 61.68 62 61 62 C61 62.66 61 63.32 61 64 C58.75487738 65.12256131 57.48543351 65.13413762 55 65.125 C53.948125 65.12886719 53.948125 65.12886719 52.875 65.1328125 C51 65 51 65 49 64 C49 63.34 49 62.68 49 62 C48.34 62 47.68 62 47 62 C46.9906543 60.86046875 46.98130859 59.7209375 46.97167969 58.546875 C46.93158945 54.28981472 46.86577905 50.03346273 46.79248047 45.77685547 C46.76438069 43.94003447 46.74311182 42.10309503 46.72900391 40.26611328 C46.70742103 37.61429686 46.66069501 34.96388815 46.609375 32.3125 C46.60814636 31.50071289 46.60691772 30.68892578 46.60565186 29.85253906 C46.46287236 24.20319634 45.25376746 19.69137166 42 15 C36.45235969 10.9653525 30.96978772 11.57574461 24.5 12.5 C23.2625 12.7475 23.2625 12.7475 22 13 C22 13.66 22 14.32 22 15 C21.34 15 20.68 15 20 15 C20 15.66 20 16.32 20 17 C19.34 17 18.68 17 18 17 C18 17.66 18 18.32 18 19 C17.34 19 16.68 19 16 19 C14.34857282 24.06511834 13.69678667 28.64150314 13.65625 33.98046875 C13.6416272 34.71574295 13.62700439 35.45101715 13.61193848 36.20857239 C13.55018386 39.32434527 13.51001091 42.44030144 13.46826172 45.55639648 C13.43448709 47.84379521 13.38941481 50.13078148 13.34375 52.41796875 C13.3384729 53.11907272 13.3331958 53.8201767 13.32775879 54.54252625 C13.25447984 58.13597298 13.17026441 61.04315106 11 64 C6.81906006 65.39364665 2.88445142 65.89886758 -1.19116211 63.95483398 C-3.85636417 61.07451641 -3.546704 58.19906264 -3.50390625 54.47265625 C-3.51332748 53.7284996 -3.52274872 52.98434296 -3.53245544 52.21763611 C-3.56113047 49.8323135 -3.56418687 47.44798082 -3.5625 45.0625 C-3.57865144 34.61682839 -3.75870708 25.06467755 -7 15 C-7.66 15 -8.32 15 -9 15 C-9 14.34 -9 13.68 -9 13 C-16.26501171 11.18374707 -21.50966012 11.29123435 -28 15 C-28.66 15 -29.32 15 -30 15 C-30 15.66 -30 16.32 -30 17 C-30.66 17 -31.32 17 -32 17 C-32 17.66 -32 18.32 -32 19 C-32.66 19 -33.32 19 -34 19 C-37.82258283 28.49602386 -37.44330164 38.17573808 -37.43579102 48.22387695 C-37.43934915 50.42967997 -37.46659893 52.63425842 -37.49609375 54.83984375 C-37.49794678 56.14300537 -37.4997998 57.44616699 -37.50170898 58.78881836 C-38 62 -38 62 -39.80883789 63.93188477 C-43.87324771 65.91314303 -47.8169815 65.3943395 -52 64 C-54.14459309 60.86006878 -54.26170225 58.13088875 -54.29052734 54.39282227 C-54.30328705 53.26807999 -54.31604675 52.14333771 -54.32919312 50.98451233 C-54.33141876 49.77403732 -54.33364441 48.56356232 -54.3359375 47.31640625 C-54.3425943 46.06874985 -54.3492511 44.82109344 -54.35610962 43.53562927 C-54.36623546 40.89689868 -54.37179187 38.25858015 -54.37060547 35.61987305 C-54.37040219 32.24591493 -54.39771756 28.87279833 -54.43214989 25.49903965 C-54.45978912 22.27152691 -54.45856853 19.04402128 -54.4609375 15.81640625 C-54.47530853 14.60795547 -54.48967957 13.3995047 -54.50448608 12.1544342 C-54.49833282 11.02653976 -54.49217957 9.89864532 -54.48583984 8.73657227 C-54.48868988 7.74714127 -54.49153992 6.75771027 -54.49447632 5.73829651 C-53.86100264 2.23026447 -52.45764901 0.53435614 -50 -2 C-47.74609375 -2.55859375 -47.74609375 -2.55859375 -45.4375 -2.4375 C-44.67308594 -2.41558594 -43.90867187 -2.39367187 -43.12109375 -2.37109375 C-41 -2 -41 -2 -38 0 C-37.67 0.99 -37.34 1.98 -37 3 C-36.01 2.21625 -35.02 1.4325 -34 0.625 C-23.964592 -6.45999805 -10.54988158 -5.52612845 0 0 Z " fill="#EDEDED" transform="translate(68,196)"/>
<path d="M0 0 C0 0.66 0 1.32 0 2 C0.66 2 1.32 2 2 2 C2 2.66 2 3.32 2 4 C2.66 4 3.32 4 4 4 C5.21875 5.57421875 5.21875 5.57421875 6.5 7.6875 C6.9228125 8.37199219 7.345625 9.05648437 7.78125 9.76171875 C12.49441785 18.41763278 13.57667219 30.41962152 11 40 C9.07328132 44.610604 6.76981854 48.8452722 4 53 C3.34 53 2.68 53 2 53 C2 53.66 2 54.32 2 55 C1.34 55 0.68 55 0 55 C0 55.66 0 56.32 0 57 C-9.71037695 63.25779848 -20.58966919 65.71057576 -31.99609375 63.390625 C-36.23600382 62.28700963 -40.12635744 61.06714104 -44 59 C-44 58.34 -44 57.68 -44 57 C-44.99 57 -45.98 57 -47 57 C-47 56.34 -47 55.68 -47 55 C-47.66 55 -48.32 55 -49 55 C-49 54.34 -49 53.68 -49 53 C-49.66 53 -50.32 53 -51 53 C-51 52.34 -51 51.68 -51 51 C-51.66 51 -52.32 51 -53 51 C-53.63309191 49.81679424 -54.25596718 48.62812152 -54.875 47.4375 C-55.22304688 46.77621094 -55.57109375 46.11492187 -55.9296875 45.43359375 C-60.18149259 35.76616832 -60.70772373 24.77193723 -57.125 14.8125 C-55.87804464 11.80595208 -54.47928736 8.89860361 -53 6 C-52.34 6 -51.68 6 -51 6 C-51 5.34 -51 4.68 -51 4 C-50.34 4 -49.68 4 -49 4 C-49 3.34 -49 2.68 -49 2 C-48.34 2 -47.68 2 -47 2 C-47 1.34 -47 0.68 -47 0 C-46.01 0 -45.02 0 -44 0 C-44 -0.66 -44 -1.32 -44 -2 C-29.58717775 -9.92705224 -13.70797164 -8.64198212 0 0 Z M-34 10 C-34 10.66 -34 11.32 -34 12 C-34.66 12 -35.32 12 -36 12 C-36 12.66 -36 13.32 -36 14 C-36.66 14 -37.32 14 -38 14 C-42.37056512 20.11879117 -42.63106476 26.69293439 -42 34 C-41.29278711 36.98492614 -40.36972739 39.20981458 -39 42 C-38.01 42.33 -37.02 42.66 -36 43 C-36 43.66 -36 44.32 -36 45 C-35.34 45 -34.68 45 -34 45 C-34 45.66 -34 46.32 -34 47 C-28.60359832 49.40702809 -23.84115059 49.9176671 -18 49 C-12.74823746 46.64928593 -8.23631849 43.45102632 -6 38 C-3.69300097 30.44982135 -4.66105045 23.28982381 -7.796875 16.16796875 C-9.88907958 12.39792479 -12.58551241 10.78582644 -16.25 8.75 C-22.38475264 7.07688564 -28.12244104 7.58869376 -34 10 Z " fill="#ECECEC" transform="translate(340,199)"/>
<path d="M0 0 C6.74430039 5.50228072 11.21013548 12.86616898 12.19702148 21.59350586 C12.84085148 33.31628344 11.95086158 43.21315619 4.16015625 52.546875 C-3.20737612 60.14464276 -12.34728976 63.60883451 -22.96484375 63.984375 C-32.71803143 63.61223429 -40.78690448 61.24064269 -48.02734375 54.609375 C-48.85234375 53.866875 -49.67734375 53.124375 -50.52734375 52.359375 C-52.02734375 50.609375 -52.02734375 50.609375 -52.02734375 48.609375 C-52.68734375 48.609375 -53.34734375 48.609375 -54.02734375 48.609375 C-57.44011276 41.4505284 -58.65949793 35.44859374 -58.52734375 27.546875 C-58.5428125 26.61810547 -58.55828125 25.68933594 -58.57421875 24.73242188 C-58.53755005 18.2008104 -57.13161649 13.34503155 -54.02734375 7.609375 C-53.36734375 7.609375 -52.70734375 7.609375 -52.02734375 7.609375 C-51.80046875 7.0525 -51.57359375 6.495625 -51.33984375 5.921875 C-47.56471182 -0.72954793 -41.40726458 -4.22513506 -34.40234375 -6.640625 C-21.98143775 -9.31256408 -10.3129832 -7.34822789 0 0 Z M-36.02734375 11.609375 C-36.02734375 12.269375 -36.02734375 12.929375 -36.02734375 13.609375 C-36.68734375 13.609375 -37.34734375 13.609375 -38.02734375 13.609375 C-41.68774472 20.22751068 -43.15133491 26.05485749 -42.02734375 33.609375 C-40.96369609 36.77739453 -39.64354547 39.68722456 -38.02734375 42.609375 C-37.36734375 42.609375 -36.70734375 42.609375 -36.02734375 42.609375 C-36.02734375 43.269375 -36.02734375 43.929375 -36.02734375 44.609375 C-30.14646882 48.79133051 -25.18558584 49.51735261 -18.02734375 48.609375 C-15.27721848 47.65830206 -15.27721848 47.65830206 -13.02734375 46.609375 C-13.02734375 45.949375 -13.02734375 45.289375 -13.02734375 44.609375 C-11.70734375 43.949375 -10.38734375 43.289375 -9.02734375 42.609375 C-9.02734375 41.949375 -9.02734375 41.289375 -9.02734375 40.609375 C-8.36734375 40.609375 -7.70734375 40.609375 -7.02734375 40.609375 C-3.53560419 32.75296099 -4.13717992 23.55732554 -7.02734375 15.609375 C-7.68734375 15.609375 -8.34734375 15.609375 -9.02734375 15.609375 C-9.68734375 14.289375 -10.34734375 12.969375 -11.02734375 11.609375 C-11.68734375 11.609375 -12.34734375 11.609375 -13.02734375 11.609375 C-13.02734375 10.949375 -13.02734375 10.289375 -13.02734375 9.609375 C-21.72925825 6.03935879 -28.07316155 6.98148717 -36.02734375 11.609375 Z " fill="#ECECEC" transform="translate(201.02734375,199.390625)"/>
<path d="M0 0 C0.556875 0.49113281 1.11375 0.98226562 1.6875 1.48828125 C1.6875 2.14828125 1.6875 2.80828125 1.6875 3.48828125 C2.3475 3.48828125 3.0075 3.48828125 3.6875 3.48828125 C5.6875 6.48828125 5.6875 6.48828125 5.6875 9.48828125 C6.3475 9.48828125 7.0075 9.48828125 7.6875 9.48828125 C9.96524909 14.96680742 10.00968504 19.97980621 10.0234375 25.8125 C10.0334227 27.28732597 10.0334227 27.28732597 10.04360962 28.79194641 C10.05370243 30.86201106 10.05842769 32.93210803 10.05810547 35.00219727 C10.06250007 38.17583014 10.09891401 41.34809529 10.13671875 44.52148438 C10.14258323 46.5351515 10.14655509 48.54882522 10.1484375 50.5625 C10.16280853 51.51251389 10.17717957 52.46252777 10.19198608 53.44132996 C10.14652092 59.95337731 10.14652092 59.95337731 7.88134766 62.59301758 C3.7316864 64.28640816 -0.13828468 63.87968636 -4.3125 62.48828125 C-7.14689839 58.79810345 -6.6274646 54.2154045 -6.65625 49.77734375 C-6.6708728 48.93158783 -6.68549561 48.08583191 -6.70056152 47.21444702 C-6.74699303 44.51410627 -6.78122128 41.81383746 -6.8125 39.11328125 C-6.85377611 35.56353545 -6.90751984 32.01429521 -6.96875 28.46484375 C-6.9740271 27.65528229 -6.9793042 26.84572083 -6.98474121 26.0116272 C-7.06431699 21.45902057 -7.59199046 17.77667703 -9.3125 13.48828125 C-9.9725 13.48828125 -10.6325 13.48828125 -11.3125 13.48828125 C-11.3125 12.82828125 -11.3125 12.16828125 -11.3125 11.48828125 C-18.59730393 9.60833185 -24.74774032 9.6454951 -31.3125 13.48828125 C-31.9725 13.48828125 -32.6325 13.48828125 -33.3125 13.48828125 C-33.3125 14.14828125 -33.3125 14.80828125 -33.3125 15.48828125 C-33.9725 15.48828125 -34.6325 15.48828125 -35.3125 15.48828125 C-35.3125 16.14828125 -35.3125 16.80828125 -35.3125 17.48828125 C-35.9725 17.48828125 -36.6325 17.48828125 -37.3125 17.48828125 C-37.456875 18.06578125 -37.60125 18.64328125 -37.75 19.23828125 C-38.07906827 20.55455435 -38.42990596 21.86636263 -38.83227539 23.16210938 C-39.50388785 26.4153496 -39.50844478 29.64860217 -39.55859375 32.95703125 C-39.59151921 34.42969373 -39.62473107 35.90234984 -39.65820312 37.375 C-39.70565564 39.6856671 -39.75013603 41.99630596 -39.78930664 44.30712891 C-39.8290705 46.54485815 -39.88058516 48.78208202 -39.93359375 51.01953125 C-39.9420079 51.70817261 -39.95042206 52.39681396 -39.95909119 53.10632324 C-40.05127399 56.6927783 -40.24318875 59.49005064 -42.3125 62.48828125 C-45.44282236 64.05344243 -48.90323084 64.02861825 -52.3125 63.48828125 C-54.41351318 62.34477234 -54.41351318 62.34477234 -56.3125 60.48828125 C-56.79351807 57.77375793 -56.79351807 57.77375793 -56.76660156 54.45629883 C-56.76629944 53.2152388 -56.76599731 51.97417877 -56.76568604 50.69551086 C-56.74525953 49.34127157 -56.72439555 47.9870388 -56.703125 46.6328125 C-56.69566337 45.24705318 -56.68997007 43.86128329 -56.68597412 42.47550964 C-56.67071123 38.83052366 -56.63142501 35.18617663 -56.5871582 31.54144287 C-56.54621889 27.8213363 -56.52796605 24.10112635 -56.5078125 20.38085938 C-56.46493033 13.08304224 -56.3966724 5.78575131 -56.3125 -1.51171875 C-55.6525 -1.51171875 -54.9925 -1.51171875 -54.3125 -1.51171875 C-54.3125 -2.17171875 -54.3125 -2.83171875 -54.3125 -3.51171875 C-52.70870659 -3.56588063 -51.10438594 -3.60458513 -49.5 -3.63671875 C-48.60667969 -3.65992188 -47.71335937 -3.683125 -46.79296875 -3.70703125 C-44.3125 -3.51171875 -44.3125 -3.51171875 -41.3125 -1.51171875 C-41.3125 -0.52171875 -41.3125 0.46828125 -41.3125 1.48828125 C-40.74402344 1.15054688 -40.17554688 0.8128125 -39.58984375 0.46484375 C-26.7756507 -6.93701067 -12.88393594 -8.42243785 0 0 Z " fill="#EDEDED" transform="translate(414.3125,197.51171875)"/>
<path d="M0 0 C2.171875 1.6015625 2.171875 1.6015625 4 4 C4.390625 7.453125 4.390625 7.453125 4.25 11.25 C4.21390625 12.51328125 4.1778125 13.7765625 4.140625 15.078125 C4.07101563 16.52445313 4.07101563 16.52445313 4 18 C4.97582031 17.96519531 5.95164063 17.93039063 6.95703125 17.89453125 C8.22933594 17.86746094 9.50164062 17.84039062 10.8125 17.8125 C12.07707031 17.77769531 13.34164062 17.74289063 14.64453125 17.70703125 C18 18 18 18 19.9375 19.28125 C21.66181174 22.07057782 21.18019672 24.8165247 21 28 C20.34 28 19.68 28 19 28 C18.505 29.485 18.505 29.485 18 31 C14.96826719 32.19493974 11.97540573 32.10493955 8.75 32.0625 C7.85796875 32.05347656 6.9659375 32.04445312 6.046875 32.03515625 C5.37140625 32.02355469 4.6959375 32.01195312 4 32 C4.11839052 37.05386681 4.2426487 42.10754269 4.37231445 47.16113281 C4.41559016 48.87984305 4.45727041 50.59859424 4.49731445 52.31738281 C4.55519565 54.789839 4.61883836 57.26209047 4.68359375 59.734375 C4.70030624 60.50118591 4.71701874 61.26799683 4.73423767 62.05804443 C4.83012865 65.52173984 5.07915862 68.66366251 6 72 C6.87011719 71.7834375 6.87011719 71.7834375 7.7578125 71.5625 C16.7997558 69.41391941 16.7997558 69.41391941 21 70 C23.375 71.5625 23.375 71.5625 25 74 C25.71502146 79.8223176 25.71502146 79.8223176 23.9375 82.75 C17.69390448 86.77812614 12.36447234 87.87034673 5 87 C1.9073473 86.20396218 -1.04216199 85.20028209 -4 84 C-4 83.34 -4 82.68 -4 82 C-4.66 82 -5.32 82 -6 82 C-6 81.34 -6 80.68 -6 80 C-6.66 80 -7.32 80 -8 80 C-14.67130568 70.67235133 -13.26018065 57.72003768 -13.125 46.75 C-13.11493849 45.31120423 -13.10581831 43.87240155 -13.09765625 42.43359375 C-13.0759206 38.95558247 -13.04157033 35.47783755 -13 32 C-15.02026367 31.78027344 -17.04052734 31.56054688 -19.06079102 31.34082031 C-21 31 -21 31 -22.9375 29.75 C-24.38834418 27.36037429 -24.9329079 25.81786841 -25 23 C-23.5625 20.1875 -23.5625 20.1875 -21 18 C-18.1975057 17.57295325 -15.85947552 17.76171037 -13 18 C-13.03480469 17.19175781 -13.06960937 16.38351563 -13.10546875 15.55078125 C-13.13253906 14.48214844 -13.15960938 13.41351563 -13.1875 12.3125 C-13.22230469 11.25675781 -13.25710937 10.20101562 -13.29296875 9.11328125 C-12.96322612 5.6092162 -12.05982471 3.81844308 -10 1 C-6.62055069 -1.56372016 -3.97046734 -1.15805297 0 0 Z " fill="#E9E9E9" transform="translate(235,176)"/>
<path d="M0 0 C0.90063171 0.04011703 1.80126343 0.08023407 2.72918701 0.12156677 C3.69286194 0.17047562 4.65653687 0.21938446 5.64941406 0.26977539 C6.64257629 0.31558243 7.63573853 0.36138947 8.65899658 0.40858459 C11.82796526 0.55601508 14.99647248 0.71162018 18.16503906 0.86743164 C20.31475328 0.9688821 22.4644927 1.06979998 24.61425781 1.17016602 C29.88149286 1.4172443 35.14837248 1.67103356 40.41503906 1.92993164 C40.5283905 13.55239012 40.31859849 25.02378734 39.41503906 36.61743164 C39.31964844 37.91487305 39.22425781 39.21231445 39.12597656 40.54907227 C38.89516693 43.67654282 38.65820283 46.80340181 38.41503906 49.92993164 C37.75503906 49.92993164 37.09503906 49.92993164 36.41503906 49.92993164 C36.41503906 50.58993164 36.41503906 51.24993164 36.41503906 51.92993164 C31.00767978 53.91630852 27.95610648 54.21154763 22.41503906 51.92993164 C20.21562534 48.63081105 20.19967272 47.89084756 20.40332031 44.10571289 C20.47389648 42.68548828 20.47389648 42.68548828 20.54589844 41.23657227 C20.60583984 40.24850586 20.66578125 39.26043945 20.72753906 38.24243164 C20.77587891 37.27370117 20.82421875 36.3049707 20.87402344 35.30688477 C21.16781797 29.80660477 21.65786642 24.38545762 22.41503906 18.92993164 C21.51785156 18.9415332 20.62066406 18.95313477 19.69628906 18.96508789 C10.22552704 19.03357481 0.85904798 18.62489156 -8.58496094 17.92993164 C-8.58496094 17.26993164 -8.58496094 16.60993164 -8.58496094 15.92993164 C-9.24496094 15.92993164 -9.90496094 15.92993164 -10.58496094 15.92993164 C-11.76737138 9.80289571 -11.80346862 6.36809979 -8.58496094 0.92993164 C-5.69359102 -0.17137125 -3.0625122 -0.14624356 0 0 Z " fill="#F5B859" transform="translate(452.5849609375,139.070068359375)"/>
<path d="M0 0 C1.80827271 0.00616333 1.80827271 0.00616333 3.65307617 0.01245117 C4.30749191 0.01290939 4.96190765 0.01336761 5.63615417 0.01383972 C7.02910156 0.01686587 8.42204545 0.024763 9.81494141 0.03710938 C11.89978704 0.05502247 13.98417832 0.05762122 16.0690918 0.05737305 C37.62686895 0.11362778 37.62686895 0.11362778 45.13354492 2.24291992 C45.43486494 18.01200078 44.53768914 33.53779093 43.13354492 49.24291992 C42.47354492 49.24291992 41.81354492 49.24291992 41.13354492 49.24291992 C41.13354492 49.90291992 41.13354492 50.56291992 41.13354492 51.24291992 C36.70204503 52.72008655 31.54660547 53.04083348 27.13354492 51.24291992 C23.04345731 45.10778851 25.44667668 35.81580646 26.13354492 28.74291992 C26.27663086 27.22311523 26.27663086 27.22311523 26.42260742 25.67260742 C26.65627691 23.19571089 26.89332897 20.71918865 27.13354492 18.24291992 C26.40393555 18.25452148 25.67432617 18.26612305 24.92260742 18.27807617 C15.29383886 18.36128775 5.74015761 17.84670254 -3.86645508 17.24291992 C-3.86645508 16.58291992 -3.86645508 15.92291992 -3.86645508 15.24291992 C-4.52645508 15.24291992 -5.18645508 15.24291992 -5.86645508 15.24291992 C-7.32436062 6.64127721 -7.32436062 6.64127721 -4.86645508 2.24291992 C-2.86645508 0.24291992 -2.86645508 0.24291992 0 0 Z " fill="#A3903C" transform="translate(421.866455078125,163.757080078125)"/>
<path d="M0 0 C0.86625 -0.00773438 1.7325 -0.01546875 2.625 -0.0234375 C5.54105484 0.46576907 6.24239962 1.02348735 8 3.375 C8.39440918 6.03137207 8.39440918 6.03137207 8.41992188 9.26757812 C8.43583374 10.47893433 8.45174561 11.69029053 8.46813965 12.93835449 C8.46844177 14.90246277 8.46844177 14.90246277 8.46875 16.90625 C8.47585044 18.2624137 8.48354927 19.61857439 8.49182129 20.97473145 C8.50526701 23.81608434 8.50683429 26.65715936 8.50097656 29.49853516 C8.49507516 33.14082123 8.52568658 36.78177672 8.56609344 40.42380524 C8.59193342 43.22397043 8.59485147 46.02381343 8.59120178 48.82408142 C8.59372005 50.82001046 8.61844323 52.81587132 8.64343262 54.81164551 C8.6341272 56.02300171 8.62482178 57.23435791 8.61523438 58.48242188 C8.61728882 59.55036987 8.61934326 60.61831787 8.62145996 61.71862793 C8 64.375 8 64.375 5.6842041 66.21594238 C2.18739579 67.72588803 -0.22777351 67.85510155 -4 67.375 C-6.63094565 65.50564388 -7.75514576 64.28761104 -8.59326172 61.16381836 C-9.07061783 57.89080582 -9.12974445 54.74986046 -9.1328125 51.44140625 C-9.13426773 50.77480484 -9.13572296 50.10820343 -9.13722229 49.42140198 C-9.13946116 47.26004331 -9.13320839 45.09884287 -9.125 42.9375 C-9.12217514 41.8359256 -9.12217514 41.8359256 -9.11929321 40.71209717 C-9.09094776 31.306282 -9.01519796 21.90073429 -8.6875 12.5 C-8.66510254 11.60482666 -8.64270508 10.70965332 -8.61962891 9.78735352 C-8.35867068 3.82132885 -8.35867068 3.82132885 -6.61645508 1.65332031 C-4.38013841 -0.11519714 -2.82038586 -0.02518202 0 0 Z " fill="#EDEDED" transform="translate(270,193.625)"/>
<path d="M0 0 C0.99 0 1.98 0 3 0 C3 6.93 3 13.86 3 21 C-7.625 22.125 -7.625 22.125 -11 21 C-11.66 20.01 -12.32 19.02 -13 18 C-13.99 18.33 -14.98 18.66 -16 19 C-16 19.66 -16 20.32 -16 21 C-18.86197868 21.63060547 -21.11218259 22.11209642 -24 22 C-27 20 -27 20 -29 17 C-29.39544552 13.17735999 -29.21260877 10.63782632 -28 7 C-24.76033624 4.72023662 -21.87886935 4.52503641 -18 5 C-15.125 7 -15.125 7 -13 9 C-12.484375 8.34 -11.96875 7.68 -11.4375 7 C-8.18392795 4.33040242 -6.09869574 4.61333059 -2 5 C-1.67 5.33 -1.34 5.66 -1 6 C-0.67 4.02 -0.34 2.04 0 0 Z M-26 10 C-26 10.99 -26 11.98 -26 13 C-23.03 13 -20.06 13 -17 13 C-17.57125354 9.25724788 -17.57125354 9.25724788 -19 8 C-22.961168 7.60909667 -22.961168 7.60909667 -26 10 Z M-9.9375 9.6875 C-11.18870248 11.96417073 -11.18870248 11.96417073 -10.9375 14.5625 C-9.78440496 17.56054711 -8.90831286 18.62663004 -6 20 C-3.28524895 19.43088211 -3.28524895 19.43088211 -1 18 C0.35439668 15.29120665 0.06501451 12.99066732 0 10 C-0.66 10 -1.32 10 -2 10 C-2 9.34 -2 8.68 -2 8 C-6.34920086 7.53174538 -6.34920086 7.53174538 -9.9375 9.6875 Z M-26 15 C-24.5208389 19.01013465 -24.5208389 19.01013465 -22.0625 19.875 C-19.68671748 20.22738107 -19.68671748 20.22738107 -17 18 C-17 17.01 -17 16.02 -17 15 C-19.97 15 -22.94 15 -26 15 Z " fill="#C6C6C6" transform="translate(136,278)"/>
<path d="M0 0 C0.99 0 1.98 0 3 0 C3 1.65 3 3.3 3 5 C3.99 5 4.98 5 6 5 C8.475 10.445 8.475 10.445 11 16 C11.598125 14.370625 12.19625 12.74125 12.8125 11.0625 C13.83203125 8.28515625 13.83203125 8.28515625 15 6 C15.99 5.67 16.98 5.34 18 5 C17.34309381 8.78239671 16.279869 12.21841526 14.9375 15.8125 C14.57527344 16.78832031 14.21304688 17.76414062 13.83984375 18.76953125 C13.56269531 19.50558594 13.28554688 20.24164063 13 21 C10.64453125 20.81640625 10.64453125 20.81640625 8 20 C6.10201876 16.81857013 5.20626918 13.52945426 4 10 C3.67 13.63 3.34 17.26 3 21 C-7.53012048 22.24698795 -7.53012048 22.24698795 -11 21 C-13.59345944 17.62850273 -13.22369269 14.10103266 -13 10 C-12 7 -12 7 -9 5 C-5.375 4.8125 -5.375 4.8125 -2 5 C-1.67 5.33 -1.34 5.66 -1 6 C-0.67 4.02 -0.34 2.04 0 0 Z M-10 10 C-10.24212873 11.98128508 -10.24212873 11.98128508 -10.125 14.125 C-10.08375 15.40375 -10.0425 16.6825 -10 18 C-7.33811081 19.33094459 -5.71944939 20.13989294 -2.75 19.5625 C-0.65991204 17.98172146 -0.65991204 17.98172146 -0.0625 14.5625 C0.3047388 11.14019973 0.3047388 11.14019973 -1.125 9.0625 C-4.61795436 7.0831592 -7.16843466 7.16843466 -10 10 Z " fill="#9A9A9A" transform="translate(40,278)"/>
<path d="M0 0 C2.31813931 2.85309454 2.06456767 5.25939644 2.05859375 8.84375 C1.52714398 11.48663536 0.74081894 12.37051859 -1.375 14 C-5.94967857 15.32157381 -9.07307318 15.05319235 -13.375 13 C-14.8125 11.3125 -14.8125 11.3125 -15.375 9 C-14.85416667 2.95833333 -14.85416667 2.95833333 -13.375 0 C-8.55346034 -2.61740725 -4.94428366 -2.08180365 0 0 Z " fill="#D9D9D9" transform="translate(276.375,177)"/>
<path d="M0 0 C3 0.25 3 0.25 5 2.25 C5.33 1.59 5.66 0.93 6 0.25 C9 1.25 9 1.25 10.6875 4.625 C12 8.25 12 8.25 12 11.25 C14.23339896 10.41745087 14.23339896 10.41745087 14.8515625 7.96484375 C15.23441406 6.59005859 15.23441406 6.59005859 15.625 5.1875 C15.88539063 4.26839844 16.14578125 3.34929687 16.4140625 2.40234375 C16.60742188 1.69207031 16.80078125 0.98179687 17 0.25 C17.99 0.25 18.98 0.25 20 0.25 C18.69274369 8.35498915 15.44428597 15.85440118 12 23.25 C11.01 22.92 10.02 22.59 9 22.25 C9.226875 21.095 9.45375 19.94 9.6875 18.75 C10.33200418 13.8726711 8.98149771 10.68855488 7 6.25 C5.68 6.25 4.36 6.25 3 6.25 C2.67 5.59 2.34 4.93 2 4.25 C-0.52733235 3.59444881 -0.52733235 3.59444881 -3 3.25 C-3 4.24 -3 5.23 -3 6.25 C-1.88625 6.53875 -0.7725 6.8275 0.375 7.125 C4 8.25 4 8.25 6 10.25 C5.625 13.375 5.625 13.375 5 16.25 C-1.625 17.375 -1.625 17.375 -5 16.25 C-5.33 14.6 -5.66 12.95 -6 11.25 C-5.01 11.25 -4.02 11.25 -3 11.25 C-2.01 12.735 -2.01 12.735 -1 14.25 C0.32 13.59 1.64 12.93 3 12.25 C1.865625 11.775625 0.73125 11.30125 -0.4375 10.8125 C-4 9.25 -4 9.25 -5 8.25 C-5.1875 5.3125 -5.1875 5.3125 -5 2.25 C-3 0.25 -3 0.25 0 0 Z " fill="#8B8B8B" transform="translate(337,282.75)"/>
<path d="M0 0 C0.66 0 1.32 0 2 0 C2.99 0 3.98 0 5 0 C5.02903577 3.10414702 5.0468107 6.20825909 5.0625 9.3125 C5.07087891 10.19357422 5.07925781 11.07464844 5.08789062 11.98242188 C5.09272461 13.25375977 5.09272461 13.25375977 5.09765625 14.55078125 C5.10551147 15.72120972 5.10551147 15.72120972 5.11352539 16.9152832 C5 19 5 19 4 22 C1.32381232 24.14095015 -0.85368281 24.08247507 -4.125 23.75 C-8 23 -8 23 -10 21 C-10 19.68 -10 18.36 -10 17 C-9.01 17 -8.02 17 -7 17 C-7 17.99 -7 18.98 -7 20 C-4.69 20 -2.38 20 0 20 C0.66 18.68 1.32 17.36 2 16 C0.783125 16.268125 -0.43375 16.53625 -1.6875 16.8125 C-5.24176481 17.24178953 -5.80907924 17.12330299 -9 15.0625 C-11.75825244 10.83892595 -11.79042695 8.9796898 -11 4 C-7.64466423 0.05254616 -5.04573666 -0.44850993 0 0 Z M-6 3 C-8.48919643 6.87392384 -8.48919643 6.87392384 -8.5 11.25 C-6.49413092 13.59018059 -5.0124262 14.3544801 -2 15 C0.4607536 14.21750908 0.4607536 14.21750908 2 12 C2.33380814 8.37436186 2.33380814 8.37436186 2 5 C1.34 5 0.68 5 0 5 C0 4.34 0 3.68 0 3 C-1.98 3 -3.96 3 -6 3 Z " fill="#B5B5B5" transform="translate(235,283)"/>
<path d="M0 0 C11.25 -0.26785714 11.25 -0.26785714 15 2 C15 1.34 15 0.68 15 0 C21.42821782 -0.36386139 21.42821782 -0.36386139 23.71875 1.09375 C25.63271296 3.94135343 25.28800847 6.30371491 25.1875 9.6875 C25.16042969 10.86699219 25.13335937 12.04648437 25.10546875 13.26171875 C25.07066406 14.16535156 25.03585938 15.06898438 25 16 C24.01 16 23.02 16 22 16 C21.505 9.565 21.505 9.565 21 3 C19.35 3 17.7 3 16 3 C16 3.66 16 4.32 16 5 C15.34 5 14.68 5 14 5 C14 8.63 14 12.26 14 16 C13.01 16 12.02 16 11 16 C10.67 12.04 10.34 8.08 10 4 C8.35 4 6.7 4 5 4 C4.34 7.96 3.68 11.92 3 16 C2.01 16 1.02 16 0 16 C0 10.72 0 5.44 0 0 Z " fill="#878787" transform="translate(147,283)"/>
<path d="M0 0 C3.63 0 7.26 0 11 0 C11 0.66 11 1.32 11 2 C11.515625 1.67 12.03125 1.34 12.5625 1 C15.78026512 -0.32010877 18.5570528 -0.13242105 22 0 C22 0.66 22 1.32 22 2 C22.66 2 23.32 2 24 2 C24.93619813 5.15506142 25.1057123 7.96586502 25.0625 11.25 C25.05347656 12.14203125 25.04445313 13.0340625 25.03515625 13.953125 C25.02355469 14.62859375 25.01195312 15.3040625 25 16 C24.01 16 23.02 16 22 16 C21.67 12.37 21.34 8.74 21 5 C19.02 4.34 17.04 3.68 15 3 C14.67 7.29 14.34 11.58 14 16 C13.01 16 12.02 16 11 16 C10.67 11.71 10.34 7.42 10 3 C8.02 3.66 6.04 4.32 4 5 C3.67 8.63 3.34 12.26 3 16 C2.01 16 1.02 16 0 16 C0 10.72 0 5.44 0 0 Z " fill="#B5B5B5" transform="translate(258,283)"/>
<path d="M0 0 C1.588125 -0.020625 3.17625 -0.04125 4.8125 -0.0625 C5.70582031 -0.07410156 6.59914063 -0.08570313 7.51953125 -0.09765625 C10 0 10 0 13 1 C13.66 0.67 14.32 0.34 15 0 C17.9375 -0.3125 17.9375 -0.3125 21 0 C23.39973224 2.32718219 23.9674136 3.66457733 24.29296875 7.015625 C24.25816406 8.08296875 24.22335937 9.1503125 24.1875 10.25 C24.16042969 11.32765625 24.13335937 12.4053125 24.10546875 13.515625 C24.07066406 14.33546875 24.03585937 15.1553125 24 16 C23.01 16 22.02 16 21 16 C20.67 12.04 20.34 8.08 20 4 C18.35 4 16.7 4 15 4 C14.34 7.96 13.68 11.92 13 16 C12.34 16 11.68 16 11 16 C10.93941406 15.21753906 10.87882812 14.43507813 10.81640625 13.62890625 C10.73261719 12.61699219 10.64882813 11.60507812 10.5625 10.5625 C10.48128906 9.55316406 10.40007812 8.54382813 10.31640625 7.50390625 C10.26788532 5.06359221 10.26788532 5.06359221 9 4 C7.35 4 5.7 4 4 4 C3.34 7.96 2.68 11.92 2 16 C1.34 16 0.68 16 0 16 C0 10.72 0 5.44 0 0 Z " fill="#A5A5A5" transform="translate(395,283)"/>
<path d="M0 0 C0 0.66 0 1.32 0 2 C0.66 2 1.32 2 2 2 C2 1.34 2 0.68 2 0 C2.99 0 3.98 0 5 0 C5 5.28 5 10.56 5 16 C-6.53900524 17.3736911 -6.53900524 17.3736911 -10 15 C-12.32536063 11.51195905 -12.33457898 10.09859246 -12 6 C-9.80333007 -0.08308596 -5.95386124 -0.22467401 0 0 Z M-7.875 4.625 C-9.42094088 7.88865297 -9.17712315 9.61577095 -8 13 C-5.75691443 14.66390749 -5.75691443 14.66390749 -3 15 C-0.68250878 14.59130748 -0.68250878 14.59130748 1 13 C2.30303251 9.78585313 2.16777454 8.41943634 0.875 5.1875 C-0.80946936 2.78114054 -0.80946936 2.78114054 -3.5 2.4375 C-6.08070155 2.81106493 -6.08070155 2.81106493 -7.875 4.625 Z " fill="#808080" transform="translate(21,283)"/>
<path d="M0 0 C2.65629793 1.88736958 3.71986871 3.30900948 4.9375 6.3125 C5.0298856 10.28508091 4.07433583 12.62920428 2 16 C-1.78316897 17.10055825 -5.31623832 17.63722741 -9 16 C-11.68403955 11.97394068 -11.67419995 8.7279338 -11 4 C-8.21093968 -0.57405892 -5.10245628 -0.72892233 0 0 Z M-8 5 C-8 5.99 -8 6.98 -8 8 C-5.03 8 -2.06 8 1 8 C0.42874646 4.25724788 0.42874646 4.25724788 -1 3 C-4.961168 2.60909667 -4.961168 2.60909667 -8 5 Z M-8 10 C-8 10.99 -8 11.98 -8 13 C-5.1628485 14.19595537 -5.1628485 14.19595537 -2 15 C-1.01 14.34 -0.02 13.68 1 13 C1 12.01 1 11.02 1 10 C-1.97 10 -4.94 10 -8 10 Z " fill="#ADADAD" transform="translate(389,283)"/>
<path d="M0 0 C0.66 0 1.32 0 2 0 C2.99 0 3.98 0 5 0 C5 5.28 5 10.56 5 16 C-5.625 17.125 -5.625 17.125 -9 16 C-11.66803806 11.99794291 -11.82370552 8.70446246 -11 4 C-7.68644318 0.0042403 -5.04564192 -0.4485015 0 0 Z M-7.9375 4.6875 C-9.18870248 6.96417073 -9.18870248 6.96417073 -8.9375 9.5625 C-7.78440496 12.56054711 -6.90831286 13.62663004 -4 15 C-1.28524895 14.43088211 -1.28524895 14.43088211 1 13 C2.35439668 10.29120665 2.06501451 7.99066732 2 5 C1.34 5 0.68 5 0 5 C0 4.34 0 3.68 0 3 C-4.34920086 2.53174538 -4.34920086 2.53174538 -7.9375 4.6875 Z " fill="#ABABAB" transform="translate(218,283)"/>
<path d="M0 0 C2.15234375 1.17578125 2.15234375 1.17578125 4 3 C4.81271119 6.72165674 4.65468988 10.25563329 4 14 C1.9375 16.25 1.9375 16.25 -1 17 C-7.11753577 16.89452525 -7.11753577 16.89452525 -9.71484375 14.26171875 C-11.28531551 11.49787939 -11.26986743 10.01142508 -10.9375 6.875 C-10.86402344 6.00617188 -10.79054688 5.13734375 -10.71484375 4.2421875 C-10 2 -10 2 -8.12890625 0.71484375 C-5.24757584 -0.25264885 -3.0212775 -0.31471641 0 0 Z M-8 5 C-8 5.99 -8 6.98 -8 8 C-4.7 8 -1.4 8 2 8 C1.34 6.35 0.68 4.7 0 3 C-4.49304582 2.57496554 -4.49304582 2.57496554 -8 5 Z M-8 10 C-6.5208389 14.01013465 -6.5208389 14.01013465 -4.0625 14.875 C-1.68671748 15.22738107 -1.68671748 15.22738107 1 13 C1 12.01 1 11.02 1 10 C-1.97 10 -4.94 10 -8 10 Z " fill="#989A9A" transform="translate(295,283)"/>
<path d="M0 0 C2.39082557 2.12517828 2.49103859 4.37499436 2.7265625 7.46484375 C2.67354018 10.22730686 2.08598988 12.12256721 0.6875 14.5 C-3.4920645 17.28637633 -5.45918677 16.29562512 -10.3125 15.5 C-10.3125 14.84 -10.3125 14.18 -10.3125 13.5 C-10.9725 13.5 -11.6325 13.5 -12.3125 13.5 C-12.42065225 11.73050905 -12.49816083 9.95912513 -12.5625 8.1875 C-12.60890625 7.20136719 -12.6553125 6.21523438 -12.703125 5.19921875 C-12.3125 2.5 -12.3125 2.5 -10.484375 0.6640625 C-6.91981065 -1.24644142 -3.85608929 -0.83374904 0 0 Z M-9.3125 3.5 C-9.6425 4.82 -9.9725 6.14 -10.3125 7.5 C-7.0125 7.5 -3.7125 7.5 -0.3125 7.5 C-0.88375354 3.75724788 -0.88375354 3.75724788 -2.3125 2.5 C-5.94444641 2.30850919 -5.94444641 2.30850919 -9.3125 3.5 Z M-9.3125 9.5 C-9.3125 10.49 -9.3125 11.48 -9.3125 12.5 C-7.04648135 13.79042763 -7.04648135 13.79042763 -4.3125 14.5 C-1.94767472 13.3727078 -1.94767472 13.3727078 -0.3125 11.5 C-0.3125 10.84 -0.3125 10.18 -0.3125 9.5 C-3.2825 9.5 -6.2525 9.5 -9.3125 9.5 Z " fill="#C9CCCB" transform="translate(254.3125,283.5)"/>
<path d="M0 0 C0 0.66 0 1.32 0 2 C0.66 2 1.32 2 2 2 C2 1.34 2 0.68 2 0 C2.66 0 3.32 0 4 0 C4 5.28 4 10.56 4 16 C-6.47159091 17.37784091 -6.47159091 17.37784091 -10 15 C-12.32536063 11.51195905 -12.33457898 10.09859246 -12 6 C-9.80333007 -0.08308596 -5.95386124 -0.22467401 0 0 Z M-7.8125 4.1875 C-9.46927316 6.71625904 -9.57882517 8.033521 -9 11 C-6.60140956 13.33630748 -6.60140956 13.33630748 -4 15 C-1.47636012 14.37466625 -1.47636012 14.37466625 1 13 C2.17778312 10.69628579 2.17778312 10.69628579 2 8 C1.02522193 5.12497747 1.02522193 5.12497747 -1 3 C-3.93767401 2.4124652 -5.30260677 2.54308719 -7.8125 4.1875 Z " fill="#9B9B9B" transform="translate(185,283)"/>
<path d="M0 0 C1.32 0 2.64 0 4 0 C4 5.28 4 10.56 4 16 C-6.33386255 17.35971876 -6.33386255 17.35971876 -10 15 C-12.06466502 12.34543069 -11.99684937 10.9117824 -11.875 7.5 C-10.09935311 0.39741242 -6.96872277 -0.49776591 0 0 Z M-7 3 C-9.16551116 6.24826674 -9.55156953 7.23094157 -9 11 C-7.37419918 13.45952223 -7.37419918 13.45952223 -5 15 C-2.60211564 14.78842197 -1.14415639 14.07207819 1 13 C1.86159454 9.76902047 2.30597523 7.77513726 1.0625 4.625 C0.711875 4.08875 0.36125 3.5525 0 3 C-3.41642759 2.74984127 -3.41642759 2.74984127 -7 3 Z " fill="#BEBEBE" transform="translate(69,283)"/>
<path d="M0 0 C1.51400391 0.01740234 1.51400391 0.01740234 3.05859375 0.03515625 C4.07050781 0.04417969 5.08242188 0.05320312 6.125 0.0625 C7.29869141 0.07990234 7.29869141 0.07990234 8.49609375 0.09765625 C8.49609375 0.75765625 8.49609375 1.41765625 8.49609375 2.09765625 C9.15609375 2.09765625 9.81609375 2.09765625 10.49609375 2.09765625 C11.43229188 5.25271767 11.60180605 8.06352127 11.55859375 11.34765625 C11.54957031 12.2396875 11.54054688 13.13171875 11.53125 14.05078125 C11.51964844 14.72625 11.50804687 15.40171875 11.49609375 16.09765625 C10.50609375 16.09765625 9.51609375 16.09765625 8.49609375 16.09765625 C8.16609375 11.80765625 7.83609375 7.51765625 7.49609375 3.09765625 C5.51609375 3.42765625 3.53609375 3.75765625 1.49609375 4.09765625 C1.16609375 8.05765625 0.83609375 12.01765625 0.49609375 16.09765625 C-0.82390625 16.09765625 -2.14390625 16.09765625 -3.50390625 16.09765625 C-3.5307572 13.61841824 -3.55067172 11.13946785 -3.56640625 8.66015625 C-3.57897461 7.59958008 -3.57897461 7.59958008 -3.59179688 6.51757812 C-3.60044213 4.71072066 -3.55610636 2.90378022 -3.50390625 1.09765625 C-2.50390625 0.09765625 -2.50390625 0.09765625 0 0 Z " fill="#A7A7A7" transform="translate(303.50390625,282.90234375)"/>
<path d="M0 0 C3.0625 0.375 3.0625 0.375 4.9375 2.25 C6.0625 4.375 6.0625 4.375 6.0625 6.375 C4.7425 6.045 3.4225 5.715 2.0625 5.375 C2.0625 4.715 2.0625 4.055 2.0625 3.375 C0.08713255 3.72286708 0.08713255 3.72286708 -1.9375 4.375 C-2.2675 5.035 -2.5975 5.695 -2.9375 6.375 C-1.82375 6.643125 -0.71 6.91125 0.4375 7.1875 C4.0625 8.375 4.0625 8.375 6.0625 11.375 C5.6875 14.0625 5.6875 14.0625 5.0625 16.375 C-1.5625 17.5 -1.5625 17.5 -4.9375 16.375 C-6.125 14.3125 -6.125 14.3125 -6.9375 12.375 C-5.6175 12.045 -4.2975 11.715 -2.9375 11.375 C-1.9475 12.86 -1.9475 12.86 -0.9375 14.375 C0.0525 14.045 1.0425 13.715 2.0625 13.375 C2.0625 12.715 2.0625 12.055 2.0625 11.375 C1.11375 11.08625 0.165 10.7975 -0.8125 10.5 C-3.9375 9.375 -3.9375 9.375 -5.9375 7.375 C-5.48903181 2.89031807 -4.79041582 0.61154244 0 0 Z " fill="#9C9D9D" transform="translate(362.9375,282.625)"/>
<path d="M0 0 C5.625 -0.25 5.625 -0.25 9 2 C9.6875 4.125 9.6875 4.125 10 6 C8.68 6 7.36 6 6 6 C6 5.01 6 4.02 6 3 C4.35 3 2.7 3 1 3 C1.63979849 5.03241727 1.63979849 5.03241727 3 7 C4.65821773 7.37309899 6.32577014 7.70700977 8 8 C10 11 10 11 9.8125 13.0625 C9 15 9 15 6 17 C3.26009592 16.96856707 0.71582146 16.44521663 -2 16 C-2 14.35 -2 12.7 -2 11 C-1.34 11 -0.68 11 0 11 C0.474375 11.495 0.94875 11.99 1.4375 12.5 C2.99969942 14.34626591 2.99969942 14.34626591 6 14 C6 12.68 6 11.36 6 10 C5.236875 10.04125 4.47375 10.0825 3.6875 10.125 C1 10 1 10 -2 8 C-2.1875 4.875 -2.1875 4.875 -2 2 C-1.34 2 -0.68 2 0 2 C0 1.34 0 0.68 0 0 Z " fill="#9D9D9D" transform="translate(423,283)"/>
<path d="M0 0 C1.5675 -0.0825 3.135 -0.165 4.75 -0.25 C5.63171875 -0.29640625 6.5134375 -0.3428125 7.421875 -0.390625 C10 0 10 0 12.3125 1.625 C14.49363528 4.69474596 14.41201817 6.52358213 14.25 10.25 C14.21390625 11.32765625 14.1778125 12.4053125 14.140625 13.515625 C14.07101563 14.74539063 14.07101563 14.74539063 14 16 C13.01 16 12.02 16 11 16 C10.93941406 15.21753906 10.87882812 14.43507813 10.81640625 13.62890625 C10.73261719 12.61699219 10.64882812 11.60507812 10.5625 10.5625 C10.48128906 9.55316406 10.40007812 8.54382813 10.31640625 7.50390625 C10.26788532 5.06359221 10.26788532 5.06359221 9 4 C7.35 4 5.7 4 4 4 C3.67 7.96 3.34 11.92 3 16 C2.01 16 1.02 16 0 16 C0 10.72 0 5.44 0 0 Z " fill="#A1A1A1" transform="translate(76,283)"/>
<path d="M0 0 C6.34375 -0.48798077 6.34375 -0.48798077 9.4375 1.8125 C11 4 11 4 11 7 C10.34 7 9.68 7 9 7 C9 6.34 9 5.68 9 5 C8.34 5 7.68 5 7 5 C7 4.34 7 3.68 7 3 C4.69 3.66 2.38 4.32 0 5 C0 7.31 0 9.62 0 12 C2.475 12.99 2.475 12.99 5 14 C5.928125 13.01 5.928125 13.01 6.875 12 C9 10 9 10 11 10 C10.52204176 14.54060325 10.52204176 14.54060325 8.4375 16.375 C4.64618783 17.34713133 1.84127197 16.80542799 -2 16 C-4.13586678 12.79619983 -4.23132175 11.98060033 -4.125 8.3125 C-4.10695313 7.50425781 -4.08890625 6.69601562 -4.0703125 5.86328125 C-4.04710938 5.24839844 -4.02390625 4.63351562 -4 4 C-2.68 3.34 -1.36 2.68 0 2 C0 1.34 0 0.68 0 0 Z " fill="#A2A2A2" transform="translate(95,283)"/>
<path d="M0 0 C0.99 0 1.98 0 3 0 C1.69274369 8.10498915 -1.55571403 15.60440118 -5 23 C-5.99 22.67 -6.98 22.34 -8 22 C-7.773125 20.845 -7.54625 19.69 -7.3125 18.5 C-6.75708595 14.32328631 -7.60661424 11.61378754 -9.40625 7.859375 C-10.14080178 5.5590681 -9.75836005 4.25512329 -9 2 C-7 3 -7 3 -5.875 5.375 C-5 8 -5 8 -5 11 C-2.76660104 10.16745087 -2.76660104 10.16745087 -2.1484375 7.71484375 C-1.89320313 6.79832031 -1.63796875 5.88179688 -1.375 4.9375 C-1.11460937 4.01839844 -0.85421875 3.09929687 -0.5859375 2.15234375 C-0.39257812 1.44207031 -0.19921875 0.73179687 0 0 Z " fill="#A8A8A8" transform="translate(354,283)"/>
<path d="M0 0 C1.5675 -0.0825 3.135 -0.165 4.75 -0.25 C5.63171875 -0.29640625 6.5134375 -0.3428125 7.421875 -0.390625 C10 0 10 0 12.3125 1.625 C14.49363528 4.69474596 14.41201817 6.52358213 14.25 10.25 C14.21390625 11.32765625 14.1778125 12.4053125 14.140625 13.515625 C14.07101563 14.74539063 14.07101563 14.74539063 14 16 C13.01 16 12.02 16 11 16 C10.93941406 15.21753906 10.87882813 14.43507813 10.81640625 13.62890625 C10.73261719 12.61699219 10.64882812 11.60507812 10.5625 10.5625 C10.48128906 9.55316406 10.40007812 8.54382813 10.31640625 7.50390625 C10.26788532 5.06359221 10.26788532 5.06359221 9 4 C7.33382885 3.95936168 5.66611905 3.957279 4 4 C2.78306124 6.43387753 2.68040104 8.41838846 2.4375 11.125 C2.31181641 12.49011719 2.31181641 12.49011719 2.18359375 13.8828125 C2.12300781 14.58148438 2.06242188 15.28015625 2 16 C1.34 16 0.68 16 0 16 C0 10.72 0 5.44 0 0 Z " fill="#9E9E9E" transform="translate(192,283)"/>
<path d="M0 0 C0.33 0 0.66 0 1 0 C1.7938642 7.21805755 2.07875823 13.80827843 1 21 C1.99 20.67 2.98 20.34 4 20 C4.99 20.99 5.98 21.98 7 23 C7.33 22.34 7.66 21.68 8 21 C8.66 21.99 9.32 22.98 10 24 C10.33 23.34 10.66 22.68 11 22 C12.65 22 14.3 22 16 22 C16 20.35 16 18.7 16 17 C16.33 17 16.66 17 17 17 C17 18.98 17 20.96 17 23 C16.34 23 15.68 23 15 23 C15 23.66 15 24.32 15 25 C9.59264072 26.98637688 6.54106741 27.28161599 1 25 C-1.24434537 21.63348195 -1.20138902 20.78403012 -0.9765625 16.89453125 C-0.925 15.91162109 -0.8734375 14.92871094 -0.8203125 13.91601562 C-0.75585938 12.89185547 -0.69140625 11.86769531 -0.625 10.8125 C-0.56828125 9.77673828 -0.5115625 8.74097656 -0.453125 7.67382812 C-0.31163334 5.11518729 -0.16022134 2.55752516 0 0 Z M5 14 C5.33 14 5.66 14 6 14 C6 15.65 6 17.3 6 19 C5.01 19.495 5.01 19.495 4 20 C4.33 18.02 4.66 16.04 5 14 Z " fill="#B98C49" transform="translate(474,166)"/>
<path d="M0 0 C-0.639375 0.103125 -1.27875 0.20625 -1.9375 0.3125 C-2.9584375 0.6528125 -2.9584375 0.6528125 -4 1 C-4.33 1.99 -4.66 2.98 -5 4 C-5.66 4 -6.32 4 -7 4 C-6.34 7.96 -5.68 11.92 -5 16 C5.56 16 16.12 16 27 16 C27.495 17.98 27.495 17.98 28 20 C27.34 20.66 26.68 21.32 26 22 C25.505 20.515 25.505 20.515 25 19 C14.77 18.34 4.54 17.68 -6 17 C-6 16.34 -6 15.68 -6 15 C-6.66 15 -7.32 15 -8 15 C-9.18241044 8.87296407 -9.21850768 5.43816815 -6 0 C-3.3727092 -1.27383796 -2.61124555 -1.30562277 0 0 Z " fill="#C79C59" transform="translate(450,140)"/>
<path d="M0 0 C0.66 0 1.32 0 2 0 C2 6.27 2 12.54 2 19 C1.34 18.67 0.68 18.34 0 18 C-0.4140625 15.71484375 -0.4140625 15.71484375 -0.625 12.9375 C-0.69976562 12.01839844 -0.77453125 11.09929687 -0.8515625 10.15234375 C-0.90054688 9.44207031 -0.94953125 8.73179687 -1 8 C-6.08303686 7.88679144 -6.08303686 7.88679144 -11 9 C-11 11.64 -11 14.28 -11 17 C-11.66 16.67 -12.32 16.34 -13 16 C-13.125 9.375 -13.125 9.375 -12 6 C-8.34346173 3.56230782 -6.30999899 3.76055561 -2 4 C-1.67 4.33 -1.34 4.66 -1 5 C-0.67 3.35 -0.34 1.7 0 0 Z " fill="#B9B9B9" transform="translate(40,279)"/>
<path d="M0 0 C0.66 0.33 1.32 0.66 2 1 C2 1.99 2 2.98 2 4 C3.65 4 5.3 4 7 4 C7 4.99 7 5.98 7 7 C5.35 7 3.7 7 2 7 C2.06000106 8.6260287 2.1487885 10.25101549 2.25 11.875 C2.29640625 12.77992188 2.3428125 13.68484375 2.390625 14.6171875 C2.75611148 17.17110544 2.75611148 17.17110544 5.046875 18.3203125 C5.69140625 18.54460937 6.3359375 18.76890625 7 19 C7 19.33 7 19.66 7 20 C4.66705225 20.04241723 2.33297433 20.04092937 0 20 C-1 19 -1 19 -1.09765625 16.27734375 C-1.08605469 15.17519531 -1.07445312 14.07304687 -1.0625 12.9375 C-1.05347656 11.83277344 -1.04445313 10.72804688 -1.03515625 9.58984375 C-1.02355469 8.73519531 -1.01195312 7.88054687 -1 7 C-1.66 7 -2.32 7 -3 7 C-3 6.01 -3 5.02 -3 4 C-2.34 4 -1.68 4 -1 4 C-0.67 2.68 -0.34 1.36 0 0 Z " fill="#A0A0A0" transform="translate(318,279)"/>
<path d="M0 0 C1.670625 0.061875 1.670625 0.061875 3.375 0.125 C0.375 2.125 0.375 2.125 -1.625 2.125 C-1.604375 3.23875 -1.58375 4.3525 -1.5625 5.5 C-1.625 9.125 -1.625 9.125 -2.625 11.125 C-2.37743555 13.19861988 -2.37743555 13.19861988 -1.625 15.125 C-0.965 15.455 -0.305 15.785 0.375 16.125 C-1.275 16.455 -2.925 16.785 -4.625 17.125 C-4.625 16.465 -4.625 15.805 -4.625 15.125 C-5.285 15.125 -5.945 15.125 -6.625 15.125 C-8.08290554 6.52335729 -8.08290554 6.52335729 -5.625 2.125 C-3.625 0.125 -3.625 0.125 0 0 Z " fill="#9C8A3E" transform="translate(422.625,163.875)"/>
<path d="M0 0 C0.99 0 1.98 0 3 0 C3 0.99 3 1.98 3 3 C4.32 3.33 5.64 3.66 7 4 C6.67 4.66 6.34 5.32 6 6 C5.01 6 4.02 6 3 6 C3 9.63 3 13.26 3 17 C3.99 17 4.98 17 6 17 C6 17.66 6 18.32 6 19 C4.02 19 2.04 19 0 19 C0 14.71 0 10.42 0 6 C-0.66 6 -1.32 6 -2 6 C-2 5.01 -2 4.02 -2 3 C-1.34 3 -0.68 3 0 3 C0 2.01 0 1.02 0 0 Z " fill="#E3E3E3" transform="translate(371,280)"/>
<path d="M0 0 C0.99 0 1.98 0 3 0 C3 1.65 3 3.3 3 5 C3.99 5.33 4.98 5.66 6 6 C5.34 6 4.68 6 4 6 C3.67 10.95 3.34 15.9 3 21 C-7.87533512 22.28786863 -7.87533512 22.28786863 -11 21 C-12.35015859 16.94952424 -11.62084998 14.2079832 -11 10 C-10.67 10 -10.34 10 -10 10 C-10 12.64 -10 15.28 -10 18 C-6.67032582 18.83241855 -4.24733335 19.2757381 -1 18 C-0.67 17.34 -0.34 16.68 0 16 C0.33 16.99 0.66 17.98 1 19 C1.495 10.09 1.495 10.09 2 1 C1.34 0.67 0.68 0.34 0 0 Z " fill="#6F6F6F" transform="translate(40,278)"/>
<path d="M0 0 C0.66 1.32 1.32 2.64 2 4 C6.29 4 10.58 4 15 4 C15 5.65 15 7.3 15 9 C14.34 9 13.68 9 13 9 C13 9.66 13 10.32 13 11 C10.13802132 11.63060547 7.88781741 12.11209642 5 12 C2 10 2 10 0 7 C-0.3125 3.1875 -0.3125 3.1875 0 0 Z M3 5 C4.4791611 9.01013465 4.4791611 9.01013465 6.9375 9.875 C9.31328252 10.22738107 9.31328252 10.22738107 12 8 C12 7.01 12 6.02 12 5 C9.03 5 6.06 5 3 5 Z " fill="#767676" transform="translate(107,288)"/>
<path d="M0 0 C2.97 0 5.94 0 9 0 C9.33 0.66 9.66 1.32 10 2 C9.20207031 2.20367187 8.40414062 2.40734375 7.58203125 2.6171875 C4.71612757 3.7697488 4.71612757 3.7697488 4.07421875 6.8203125 C3.94660156 7.91085937 3.81898438 9.00140625 3.6875 10.125 C3.54699219 11.22070312 3.40648437 12.31640625 3.26171875 13.4453125 C3.17535156 14.28835938 3.08898437 15.13140625 3 16 C2.01 16 1.02 16 0 16 C0 10.72 0 5.44 0 0 Z " fill="#A3A3A3" transform="translate(147,283)"/>
<path d="M0 0 C3.63 0 7.26 0 11 0 C9.60683123 2.78633754 7.84019484 2.93492694 5 4 C3.26043342 5.73956658 3.62809614 8.1936622 3.4375 10.5625 C3.35371094 11.57441406 3.26992188 12.58632813 3.18359375 13.62890625 C3.12300781 14.41136719 3.06242187 15.19382812 3 16 C2.01 16 1.02 16 0 16 C0 10.72 0 5.44 0 0 Z " fill="#949494" transform="translate(258,283)"/>
<path d="M0 0 C0.99 0 1.98 0 3 0 C4.44207941 2.88415883 4.09394887 5.41721528 4.0625 8.625 C4.05347656 9.81351562 4.04445313 11.00203125 4.03515625 12.2265625 C4.02355469 13.14179688 4.01195312 14.05703125 4 15 C2.68 15 1.36 15 0 15 C0 10.05 0 5.1 0 0 Z " fill="#ADAEAE" transform="translate(300,284)"/>
<path d="M0 0 C4.29 0 8.58 0 13 0 C12 6 12 6 10.4375 7.4375 C6.77325379 8.28309528 3.70103888 7.61683981 0 7 C-0.33 6.01 -0.66 5.02 -1 4 C1.97851562 4.43945312 1.97851562 4.43945312 4.95703125 4.87890625 C7.2025342 5.13904799 7.2025342 5.13904799 10 4 C10 3.01 10 2.02 10 1 C6.7 1.33 3.4 1.66 0 2 C0 1.34 0 0.68 0 0 Z " fill="#808080" transform="translate(380,292)"/>
<path d="M0 0 C4.29 0 8.58 0 13 0 C13 1.65 13 3.3 13 5 C10.9375 6.875 10.9375 6.875 8 8 C4.1875 7.6875 4.1875 7.6875 1 7 C0 2.25 0 2.25 0 0 Z M1 1 C2.4791611 5.01013465 2.4791611 5.01013465 4.9375 5.875 C7.31328252 6.22738107 7.31328252 6.22738107 10 4 C10 3.01 10 2.02 10 1 C7.03 1 4.06 1 1 1 Z " fill="#818181" transform="translate(286,292)"/>
<path d="M0 0 C1.134375 0.020625 2.26875 0.04125 3.4375 0.0625 C3.4375 0.7225 3.4375 1.3825 3.4375 2.0625 C4.0975 2.0625 4.7575 2.0625 5.4375 2.0625 C6.37369813 5.21756142 6.5432123 8.02836502 6.5 11.3125 C6.49097656 12.20453125 6.48195313 13.0965625 6.47265625 14.015625 C6.46105469 14.69109375 6.44945312 15.3665625 6.4375 16.0625 C5.4475 16.0625 4.4575 16.0625 3.4375 16.0625 C3.42332031 15.30324219 3.40914063 14.54398437 3.39453125 13.76171875 C3.25171108 10.78565528 3.04118776 7.98176153 2.4375 5.0625 C0.16986635 2.81509808 0.16986635 2.81509808 -2.5625 2.0625 C-3.2225 1.7325 -3.8825 1.4025 -4.5625 1.0625 C-3.5625 0.0625 -3.5625 0.0625 0 0 Z " fill="#A8A8A8" transform="translate(276.5625,282.9375)"/>
<path d="M0 0 C2 1.8125 2 1.8125 3 4 C2.67 4.99 2.34 5.98 2 7 C2 6.34 2 5.68 2 5 C0.081875 4.690625 0.081875 4.690625 -1.875 4.375 C-2.95394531 4.20097656 -2.95394531 4.20097656 -4.0546875 4.0234375 C-4.69664062 4.01570313 -5.33859375 4.00796875 -6 4 C-8.35953094 6.35953094 -8.49141413 7.77895617 -9 11 C-9.66 11 -10.32 11 -11 11 C-11.48076923 4.75 -11.48076923 4.75 -9.4375 1.5625 C-6.07240983 -0.59460908 -3.91795996 -0.56988508 0 0 Z " fill="#CBCBCB" transform="translate(185,283)"/>
<path d="M0 0 C0.97791242 2.64036353 1.03638105 3.87266632 0.25 6.625 C-1 9 -1 9 -4 11 C-6.6875 11.125 -6.6875 11.125 -9 11 C-9.66 9.68 -10.32 8.36 -11 7 C-10.2575 7.2475 -9.515 7.495 -8.75 7.75 C-7.8425 7.8325 -6.935 7.915 -6 8 C-3.66545339 6.16641665 -3.66545339 6.16641665 -2 4 C-4.97 4 -7.94 4 -11 4 C-11.33 4.66 -11.66 5.32 -12 6 C-12 5.01 -12 4.02 -12 3 C-8.04 3 -4.08 3 0 3 C0 2.01 0 1.02 0 0 Z " fill="#7B7C7B" transform="translate(256,289)"/>
<path d="M0 0 C0.66 0 1.32 0 2 0 C2 6.6 2 13.2 2 20 C1.34 20 0.68 20 0 20 C-0.66 15.71 -1.32 11.42 -2 7 C-1.34 7 -0.68 7 0 7 C0 4.69 0 2.38 0 0 Z " fill="#C7C7C7" transform="translate(137,279)"/>
<path d="M0 0 C2.375 2 2.375 2 4 4 C3.34 5.32 2.68 6.64 2 8 C1.608125 7.34 1.21625 6.68 0.8125 6 C-0.8442262 3.77336403 -0.8442262 3.77336403 -3.5 3.5 C-6.1557738 3.77336403 -6.1557738 3.77336403 -7.8125 6 C-8.204375 6.66 -8.59625 7.32 -9 8 C-9.33 6.02 -9.66 4.04 -10 2 C-6.59575912 -0.09491746 -3.96585158 -0.49573145 0 0 Z " fill="#9F9F9F" transform="translate(118,283)"/>
<path d="M0 0 C3.66666667 0 7.33333333 0 11 0 C11 5.28 11 10.56 11 16 C10.67 16 10.34 16 10 16 C9.67 12.04 9.34 8.08 9 4 C8.01 4.33 7.02 4.66 6 5 C6 4.34 6 3.68 6 3 C4.35 3 2.7 3 1 3 C0.67 2.01 0.34 1.02 0 0 Z " fill="#8F8F8F" transform="translate(229,283)"/>
<path d="M0 0 C0.99 0 1.98 0 3 0 C3 0.99 3 1.98 3 3 C4.093125 3 5.18625 3 6.3125 3 C8.54166667 3 10.77083333 3 13 3 C13.33 3.66 13.66 4.32 14 5 C11.21014263 6.97614897 9.16665323 7.10310462 5.875 6.75 C2 6 2 6 0 4 C0 2.68 0 1.36 0 0 Z " fill="#A0A0A0" transform="translate(225,300)"/>
<path d="M0 0 C0.99 0 1.98 0 3 0 C2.12649619 5.4157236 0.95657333 12.04342667 -3 16 C-3 15.01 -3 14.02 -3 13 C-3.66 13 -4.32 13 -5 13 C-5 12.34 -5 11.68 -5 11 C-4.34 10.67 -3.68 10.34 -3 10 C-2.08968728 7.65613191 -2.08968728 7.65613191 -1.375 4.9375 C-1.11460937 4.01839844 -0.85421875 3.09929687 -0.5859375 2.15234375 C-0.39257812 1.44207031 -0.19921875 0.73179687 0 0 Z " fill="#7F8080" transform="translate(354,283)"/>
<path d="M0 0 C0.66 0 1.32 0 2 0 C2 4.95 2 9.9 2 15 C1.34 15 0.68 15 0 15 C-0.66 10.71 -1.32 6.42 -2 2 C-1.34 2 -0.68 2 0 2 C0 1.34 0 0.68 0 0 Z " fill="#C6C6C6" transform="translate(221,284)"/>
<path d="M0 0 C2.375 1 2.375 1 4 2 C3.67 3.98 3.34 5.96 3 8 C2.649375 7.34 2.29875 6.68 1.9375 6 C0.05042921 3.58955653 0.05042921 3.58955653 -3.5625 3.875 C-4.696875 3.91625 -5.83125 3.9575 -7 4 C-7.66 3.34 -8.32 2.68 -9 2 C-5.51195905 -0.32536063 -4.09859246 -0.33457898 0 0 Z " fill="#ACACAC" transform="translate(252,283)"/>
<path d="M0 0 C0.66 0 1.32 0 2 0 C3.38226016 2.76452033 3.09525387 5.0461363 3.0625 8.125 C3.05347656 9.22070312 3.04445313 10.31640625 3.03515625 11.4453125 C3.02355469 12.28835938 3.01195312 13.13140625 3 14 C2.01 14 1.02 14 0 14 C0 9.38 0 4.76 0 0 Z " fill="#A7A7A7" transform="translate(416,285)"/>
<path d="M0 0 C2.31 0 4.62 0 7 0 C7 0.66 7 1.32 7 2 C7.66 2 8.32 2 9 2 C9 1.34 9 0.68 9 0 C9.99 0 10.98 0 12 0 C12 5.28 12 10.56 12 16 C11.67 16 11.34 16 11 16 C10.67 12.04 10.34 8.08 10 4 C9.01 4.33 8.02 4.66 7 5 C4.48301368 3.92745123 2.33194455 2.45196548 0 1 C0 0.67 0 0.34 0 0 Z " fill="#5B5B5B" transform="translate(14,283)"/>
<path d="M0 0 C-0.639375 0.103125 -1.27875 0.20625 -1.9375 0.3125 C-2.9584375 0.6528125 -2.9584375 0.6528125 -4 1 C-4.33 1.99 -4.66 2.98 -5 4 C-5.66 4 -6.32 4 -7 4 C-6.68817931 5.41681634 -6.37551263 6.83344651 -6.0625 8.25 C-5.88847656 9.03890625 -5.71445312 9.8278125 -5.53515625 10.640625 C-5.052444 12.76878703 -4.53836822 14.88532842 -4 17 C-4.66 17 -5.32 17 -6 17 C-6 16.34 -6 15.68 -6 15 C-6.66 15 -7.32 15 -8 15 C-9.18241044 8.87296407 -9.21850768 5.43816815 -6 0 C-3.3727092 -1.27383796 -2.61124555 -1.30562277 0 0 Z " fill="#AA8650" transform="translate(450,140)"/>
<path d="M0 0 C2 2 2 2 2 5 C0.56359829 5.19573608 -0.87419504 5.38127816 -2.3125 5.5625 C-3.11300781 5.66691406 -3.91351563 5.77132813 -4.73828125 5.87890625 C-7 6 -7 6 -10 5 C-10.33 4.01 -10.66 3.02 -11 2 C-7.31434068 0.77144689 -6.47524187 1.60990325 -3 3 C-2.01 2.67 -1.02 2.34 0 2 C0 1.34 0 0.68 0 0 Z " fill="#989898" transform="translate(135,294)"/>
<path d="M0 0 C0.66 0 1.32 0 2 0 C2 1.65 2 3.3 2 5 C-2.29 5 -6.58 5 -11 5 C-10.67 6.65 -10.34 8.3 -10 10 C-10.66 10 -11.32 10 -12 10 C-13.35439668 7.29120665 -13.06501451 4.99066732 -13 2 C-12.34 2 -11.68 2 -11 2 C-11 2.66 -11 3.32 -11 4 C-7.37 4 -3.74 4 0 4 C0 2.68 0 1.36 0 0 Z " fill="#D0D1D0" transform="translate(297,287)"/>
<path d="M0 0 C3.0625 0.375 3.0625 0.375 4.9375 2.25 C6.0625 4.375 6.0625 4.375 6.0625 6.375 C4.7425 6.045 3.4225 5.715 2.0625 5.375 C2.0625 4.715 2.0625 4.055 2.0625 3.375 C-0.80474686 3.94844937 -1.7989515 4.2364515 -3.9375 6.375 C-4.5625 4.5 -4.5625 4.5 -4.9375 2.375 C-2.9375 0.375 -2.9375 0.375 0 0 Z " fill="#8F8F8F" transform="translate(362.9375,282.625)"/>
<path d="M0 0 C0.33 0 0.66 0 1 0 C1 4.95 1 9.9 1 15 C0.67 14.34 0.34 13.68 0 13 C-0.99 13.33 -1.98 13.66 -3 14 C-2.73958333 12.046875 -2.47916667 10.09375 -2.21875 8.140625 C-1.93222643 5.69541605 -1.93222643 5.69541605 -2 2 C-1.34 2 -0.68 2 0 2 C0 1.34 0 0.68 0 0 Z " fill="#C1C1C1" transform="translate(72,284)"/>
<path d="M0 0 C0.33 0.99 0.66 1.98 1 3 C3.01508358 3.73323796 3.01508358 3.73323796 5 4 C4.67 4.66 4.34 5.32 4 6 C3.01 6 2.02 6 1 6 C1 9.63 1 13.26 1 17 C1.99 17 2.98 17 4 17 C4 17.66 4 18.32 4 19 C2.02 19 0.04 19 -2 19 C-1.67 18.34 -1.34 17.68 -1 17 C-0.76725791 14.12089412 -0.58027243 11.25853505 -0.4375 8.375 C-0.39431641 7.57320313 -0.35113281 6.77140625 -0.30664062 5.9453125 C-0.20048543 3.9637489 -0.09973145 1.98189729 0 0 Z " fill="#5A5A5A" transform="translate(373,280)"/>
<path d="M0 0 C0.33 0 0.66 0 1 0 C1 1.98 1 3.96 1 6 C0.34 6 -0.32 6 -1 6 C-1 6.66 -1 7.32 -1 8 C-6.59306069 10.05459372 -9.40693931 10.05459372 -15 8 C-11.92677456 7.08941469 -9.19902639 6.91113816 -6 7 C-5.67 6.34 -5.34 5.68 -5 5 C-3.35 5 -1.7 5 0 5 C0 3.35 0 1.7 0 0 Z " fill="#B0864D" transform="translate(490,183)"/>
<path d="M0 0 C0.33 0.66 0.66 1.32 1 2 C-1 4 -1 4 -3.625 4.125 C-4.40875 4.08375 -5.1925 4.0425 -6 4 C-6.66 5.32 -7.32 6.64 -8 8 C-8 6.68 -8 5.36 -8 4 C-8.66 4 -9.32 4 -10 4 C-10 3.34 -10 2.68 -10 2 C-6.5980513 -0.09350689 -3.94727588 -0.17942163 0 0 Z " fill="#848484" transform="translate(416,283)"/>
<path d="M0 0 C3.63 0 7.26 0 11 0 C11 0.66 11 1.32 11 2 C11.66 2 12.32 2 13 2 C12 4 12 4 10 5 C10 4.34 10 3.68 10 3 C7.69 3.33 5.38 3.66 3 4 C2.67 3.01 2.34 2.02 2 1 C1.34 0.67 0.68 0.34 0 0 Z " fill="#8D8E8D" transform="translate(301,283)"/>
<path d="M0 0 C6.31619537 -0.48586118 6.31619537 -0.48586118 9.375 1.6875 C11.13434402 4.19118187 11.66466723 5.98200506 12 9 C11.67 8.34 11.34 7.68 11 7 C10.01 7.33 9.02 7.66 8 8 C6.5393715 5.35261084 6 4.10551666 6 1 C3.69 1.33 1.38 1.66 -1 2 C-0.67 1.34 -0.34 0.68 0 0 Z " fill="#727272" transform="translate(382,283)"/>
<path d="M0 0 C2.875 -0.125 2.875 -0.125 6 0 C6.66 0.66 7.32 1.32 8 2 C8.33 1.34 8.66 0.68 9 0 C9.99 0.33 10.98 0.66 12 1 C11.25 2.9375 11.25 2.9375 10 5 C7.875 5.75 7.875 5.75 6 6 C5.67 5.34 5.34 4.68 5 4 C3.34051852 2.98812105 1.67419438 1.9873454 0 1 C0 0.67 0 0.34 0 0 Z " fill="#7B7B7B" transform="translate(334,283)"/>
<path d="M0 0 C1.4540625 0.0309375 1.4540625 0.0309375 2.9375 0.0625 C-0.0625 2.0625 -0.0625 2.0625 -2.0625 2.0625 C-2.0625 3.0525 -2.0625 4.0425 -2.0625 5.0625 C-0.7425 5.3925 0.5775 5.7225 1.9375 6.0625 C1.9375 6.7225 1.9375 7.3825 1.9375 8.0625 C0.27138095 8.105221 -1.39632885 8.10313832 -3.0625 8.0625 C-4.0625 7.0625 -4.0625 7.0625 -4.1875 4.0625 C-4.02164894 0.08207447 -4.02164894 0.08207447 0 0 Z " fill="#B6B6B6" transform="translate(336.0625,283.9375)"/>
<path d="M0 0 C-0.99 0.66 -1.98 1.32 -3 2 C-4.0209375 3.051875 -4.0209375 3.051875 -5.0625 4.125 C-7 6 -7 6 -9 6 C-9.33 6.99 -9.66 7.98 -10 9 C-10.35789474 3.63157895 -10.35789474 3.63157895 -8.9375 1.125 C-5.99772876 -0.58196395 -3.32129197 -0.18799766 0 0 Z " fill="#B8B8B8" transform="translate(20,284)"/>
<path d="M0 0 C5.625 -0.25 5.625 -0.25 9 2 C9.6875 4.125 9.6875 4.125 10 6 C8.68 6 7.36 6 6 6 C6 5.01 6 4.02 6 3 C3.03 2.505 3.03 2.505 0 2 C0 1.34 0 0.68 0 0 Z " fill="#828282" transform="translate(423,283)"/>
<path d="M0 0 C2 2 2 2 2.125 4.625 C2.08375 5.40875 2.0425 6.1925 2 7 C1.67 6.01 1.34 5.02 1 4 C-1.64 4.33 -4.28 4.66 -7 5 C-7.33 3.68 -7.66 2.36 -8 1 C-6.8553125 1.309375 -6.8553125 1.309375 -5.6875 1.625 C-2.78114056 2.33391203 -2.78114056 2.33391203 0 0 Z " fill="#888888" transform="translate(236,295)"/>
<path d="M0 0 C2 2 2 2 2 5 C-2.455 5.495 -2.455 5.495 -7 6 C-7.33 4.68 -7.66 3.36 -8 2 C-6.8553125 2.2784375 -6.8553125 2.2784375 -5.6875 2.5625 C-2.91032625 3.22819173 -2.91032625 3.22819173 0 2 C0 1.34 0 0.68 0 0 Z " fill="#818181" transform="translate(219,294)"/>
<path d="M0 0 C0.99 0.33 1.98 0.66 3 1 C3 5.29 3 9.58 3 14 C2.34 14 1.68 14 1 14 C0.67 9.38 0.34 4.76 0 0 Z " fill="#DFDFDF" transform="translate(169,285)"/>
<path d="M0 0 C0.66 0 1.32 0 2 0 C2.433125 0.474375 2.86625 0.94875 3.3125 1.4375 C5.44693733 3.41383086 7.16307947 3.61663236 10 4 C9.34 4.66 8.68 5.32 8 6 C5.27130593 5.96712417 2.7033382 5.43602229 0 5 C0 3.35 0 1.7 0 0 Z " fill="#909090" transform="translate(421,294)"/>
<path d="M0 0 C0.33 0 0.66 0 1 0 C1 4.95 1 9.9 1 15 C-1.02350324 11.96474514 -1.32124018 10.80573798 -1.625 7.3125 C-1.69976563 6.50425781 -1.77453125 5.69601562 -1.8515625 4.86328125 C-1.90054687 4.24839844 -1.94953125 3.63351562 -2 3 C-1.34 3 -0.68 3 0 3 C0 2.01 0 1.02 0 0 Z " fill="#DBDBDB" transform="translate(24,284)"/>
<path d="M0 0 C0.66 0 1.32 0 2 0 C2 0.99 2 1.98 2 3 C1.34 3 0.68 3 0 3 C0 3.66 0 4.32 0 5 C-2.64 5.33 -5.28 5.66 -8 6 C-8 5.34 -8 4.68 -8 4 C-6.865625 3.525625 -5.73125 3.05125 -4.5625 2.5625 C-1.24259834 1.36377917 -1.24259834 1.36377917 0 0 Z " fill="#A7A7A7" transform="translate(120,294)"/>
<path d="M0 0 C2 3 2 3 2 6 C-2.455 6.495 -2.455 6.495 -7 7 C-7.33 6.34 -7.66 5.68 -8 5 C-5.36 4.34 -2.72 3.68 0 3 C0 2.01 0 1.02 0 0 Z " fill="#9B9B9B" transform="translate(22,293)"/>
<path d="M0 0 C0.33 0 0.66 0 1 0 C1.99 3.63 2.98 7.26 4 11 C3.01 11 2.02 11 1 11 C-1.30441554 7.54337669 -1.25860135 6.05142119 -1 2 C-0.67 1.34 -0.34 0.68 0 0 Z " fill="#BFBFBF" transform="translate(208,288)"/>
<path d="M0 0 C0 0.66 0 1.32 0 2 C-4.29 2 -8.58 2 -13 2 C-12.67 3.32 -12.34 4.64 -12 6 C-12.99 6 -13.98 6 -15 6 C-15 4.35 -15 2.7 -15 1 C-12.8750734 0.83240016 -10.75005624 0.66594799 -8.625 0.5 C-7.44164062 0.4071875 -6.25828125 0.314375 -5.0390625 0.21875 C-3.36213157 0.09804546 -1.68126944 0 0 0 Z " fill="#E3E3E3" transform="translate(393,290)"/>
<path d="M0 0 C6.460199 -0.36567164 6.460199 -0.36567164 8.9375 1.3125 C10 3 10 3 10 6 C9.34 6 8.68 6 8 6 C8 5.34 8 4.68 8 4 C7.34 4 6.68 4 6 4 C6 3.34 6 2.68 6 2 C4.02 2 2.04 2 0 2 C0 1.34 0 0.68 0 0 Z " fill="#B5B5B5" transform="translate(96,284)"/>
<path d="M0 0 C0.66 0.33 1.32 0.66 2 1 C2 3.31 2 5.62 2 8 C3.65 8.33 5.3 8.66 7 9 C6.34 9.66 5.68 10.32 5 11 C4.01 11 3.02 11 2 11 C2 10.34 2 9.68 2 9 C1.34 9 0.68 9 0 9 C-0.87890625 2.84765625 -0.87890625 2.84765625 -1 1 C-0.67 0.67 -0.34 0.34 0 0 Z " fill="#7E733B" transform="translate(416,170)"/>
<path d="M0 0 C0.66 0 1.32 0 2 0 C1.32829194 3.8063457 0.27253436 7.35206816 -1 11 C-1.66 10.01 -2.32 9.02 -3 8 C-1.55555556 1.55555556 -1.55555556 1.55555556 0 0 Z " fill="#888888" transform="translate(56,283)"/>
<path d="M0 0 C0.99 0.33 1.98 0.66 3 1 C2.34 1 1.68 1 1 1 C1.020625 2.11375 1.04125 3.2275 1.0625 4.375 C1 8 1 8 0 10 C-0.66 10 -1.32 10 -2 10 C-2.33 8.68 -2.66 7.36 -3 6 C-4.98 6 -6.96 6 -9 6 C-9 5.67 -9 5.34 -9 5 C-6.66705225 4.95758277 -4.33297433 4.95907063 -2 5 C-1.67 5.33 -1.34 5.66 -1 6 C-0.67 4.02 -0.34 2.04 0 0 Z " fill="#4D4D4D" transform="translate(136,278)"/>
<path d="M0 0 C2.0625 0.4375 2.0625 0.4375 4 1 C4 1.66 4 2.32 4 3 C2.54263913 3.19491452 1.08405407 3.38069358 -0.375 3.5625 C-1.18710938 3.66691406 -1.99921875 3.77132813 -2.8359375 3.87890625 C-5 4 -5 4 -7 3 C-7 2.34 -7 1.68 -7 1 C-5.5459375 1.0309375 -5.5459375 1.0309375 -4.0625 1.0625 C-1.12534105 1.35618499 -1.12534105 1.35618499 0 0 Z " fill="#9C9C9C" transform="translate(68,296)"/>
<path d="M0 0 C0.99 0 1.98 0 3 0 C3.37125 1.2065625 3.37125 1.2065625 3.75 2.4375 C4.72238859 5.171081 4.72238859 5.171081 7.125 5.8125 C8.053125 5.9053125 8.053125 5.9053125 9 6 C3.5388601 5.64766839 3.5388601 5.64766839 1 5 C-0.5 2.9375 -0.5 2.9375 -1 1 C-0.67 0.67 -0.34 0.34 0 0 Z " fill="#787878" transform="translate(357,294)"/>
<path d="M0 0 C0.33 0 0.66 0 1 0 C1 1.65 1 3.3 1 5 C1.598125 5.103125 2.19625 5.20625 2.8125 5.3125 C5.28243264 6.08876455 6.32251235 7.07088921 8 9 C6.35 9.33 4.7 9.66 3 10 C0.64551835 7.44931155 0.01672076 6.28982642 -0.1875 2.75 C-0.125625 1.8425 -0.06375 0.935 0 0 Z " fill="#737373" transform="translate(173,289)"/>
<path d="M0 0 C2.75 -0.25 2.75 -0.25 6 0 C8.375 2 8.375 2 10 4 C9.34 5.32 8.68 6.64 8 8 C5 4.375 5 4.375 5 1 C3.35 1 1.7 1 0 1 C0 0.67 0 0.34 0 0 Z " fill="#6C6C6C" transform="translate(112,283)"/>
<path d="M0 0 C2.31 0 4.62 0 7 0 C7 0.33 7 0.66 7 1 C5.02 1 3.04 1 1 1 C0.87625 1.61875 0.7525 2.2375 0.625 2.875 C0 5 0 5 -2 7 C-2.66 6.67 -3.32 6.34 -4 6 C-3.34 4.68 -2.68 3.36 -2 2 C-1.34 2 -0.68 2 0 2 C0 1.34 0 0.68 0 0 Z " fill="#787878" transform="translate(95,283)"/>
<path d="M0 0 C0.99 0 1.98 0 3 0 C2.46930939 3.82097239 1.50298434 6.06171403 -1 9 C-0.67 6.03 -0.34 3.06 0 0 Z " fill="#9C9D9D" transform="translate(354,283)"/>
<path d="M0 0 C-0.598125 0.2475 -1.19625 0.495 -1.8125 0.75 C-4.28647521 2.16370012 -5.43370255 3.65055383 -7 6 C-7.33 4.02 -7.66 2.04 -8 0 C-5.13822943 -1.43088528 -3.06624227 -0.59991697 0 0 Z " fill="#939393" transform="translate(293,285)"/>
<path d="M0 0 C1.134375 0.020625 2.26875 0.04125 3.4375 0.0625 C3.4375 0.7225 3.4375 1.3825 3.4375 2.0625 C4.0975 2.0625 4.7575 2.0625 5.4375 2.0625 C5.1075 2.7225 4.7775 3.3825 4.4375 4.0625 C1.29081714 4.0625 0.12291824 3.53514871 -2.5625 2.0625 C-3.2225 1.7325 -3.8825 1.4025 -4.5625 1.0625 C-3.5625 0.0625 -3.5625 0.0625 0 0 Z " fill="#696969" transform="translate(276.5625,282.9375)"/>
<path d="M0 0 C0.99 0.33 1.98 0.66 3 1 C3.33 3.64 3.66 6.28 4 9 C3.34 9 2.68 9 2 9 C0.50178941 5.62902617 0 3.79557881 0 0 Z " fill="#B3B3B3" transform="translate(44,284)"/>
<path d="M0 0 C0.33 0.99 0.66 1.98 1 3 C2.32303717 3.3721042 3.65737935 3.70630173 5 4 C5.33 4.66 5.66 5.32 6 6 C3.625 6.125 3.625 6.125 1 6 C0.34 5.34 -0.32 4.68 -1 4 C-0.625 1.875 -0.625 1.875 0 0 Z " fill="#BBBDBC" transform="translate(358,286)"/>
<path d="M0 0 C1.65 0 3.3 0 5 0 C4.01 0.495 4.01 0.495 3 1 C3 2.65 3 4.3 3 6 C2.01 6 1.02 6 0 6 C0 4.02 0 2.04 0 0 Z " fill="#B2B2B2" transform="translate(421,285)"/>
<path d="M0 0 C0.33 0.99 0.66 1.98 1 3 C2.31647119 3.69937532 3.65022151 4.36729133 5 5 C5.33 5.66 5.66 6.32 6 7 C5.34 7 4.68 7 4 7 C3.67 7.66 3.34 8.32 3 9 C0.70620251 5.55930376 0 4.27709699 0 0 Z " fill="#6D6D6D" transform="translate(57,290)"/>
<path d="M0 0 C0.66 0.33 1.32 0.66 2 1 C-0.25 3.5625 -0.25 3.5625 -3 6 C-5.3125 5.8125 -5.3125 5.8125 -7 5 C-5.73223544 2.46447088 -4.53176935 2.15080425 -2 1 C-1.34 0.67 -0.68 0.34 0 0 Z " fill="#979797" transform="translate(80,199)"/>
<path d="M0 0 C0.99 0 1.98 0 3 0 C3 0.99 3 1.98 3 3 C3.66 3.33 4.32 3.66 5 4 C4.67 4.66 4.34 5.32 4 6 C2.68 5.34 1.36 4.68 0 4 C0 2.68 0 1.36 0 0 Z " fill="#757575" transform="translate(225,300)"/>
<path d="M0 0 C0.66 0 1.32 0 2 0 C1.67 2.64 1.34 5.28 1 8 C0.34 8 -0.32 8 -1 8 C-1.04241723 5.66705225 -1.04092937 3.33297433 -1 1 C-0.67 0.67 -0.34 0.34 0 0 Z " fill="#CECECE" transform="translate(175,286)"/>
<path d="M0 0 C7.42857143 -0.14285714 7.42857143 -0.14285714 11 1 C10.67 1.66 10.34 2.32 10 3 C9.34 3 8.68 3 8 3 C7.67 3.66 7.34 4.32 7 5 C6.67 3.68 6.34 2.36 6 1 C4.02 1 2.04 1 0 1 C0 0.67 0 0.34 0 0 Z " fill="#4A4A4A" transform="translate(62,283)"/>
<path d="M0 0 C-0.33 0.99 -0.66 1.98 -1 3 C-3.875 3.625 -3.875 3.625 -7 4 C-7.66 3.34 -8.32 2.68 -9 2 C-5.5647952 -0.29013653 -4.014669 -0.17842973 0 0 Z " fill="#666666" transform="translate(252,283)"/>
<path d="M0 0 C8 0 8 0 11 1 C10.34 1 9.68 1 9 1 C9 1.66 9 2.32 9 3 C8.34 3 7.68 3 7 3 C6.67 3.66 6.34 4.32 6 5 C5.67 3.68 5.34 2.36 5 1 C3.35 1 1.7 1 0 1 C0 0.67 0 0.34 0 0 Z " fill="#4D4D4D" transform="translate(212,283)"/>
<path d="M0 0 C-0.639375 0.103125 -1.27875 0.20625 -1.9375 0.3125 C-2.9584375 0.6528125 -2.9584375 0.6528125 -4 1 C-4.33 1.99 -4.66 2.98 -5 4 C-5.66 4 -6.32 4 -7 4 C-7.33 4.99 -7.66 5.98 -8 7 C-7.125 2.25 -7.125 2.25 -6 0 C-2.49056604 -1.24528302 -2.49056604 -1.24528302 0 0 Z " fill="#967746" transform="translate(450,140)"/>
<path d="M0 0 C0 0.33 0 0.66 0 1 C-1.1446875 1.1546875 -1.1446875 1.1546875 -2.3125 1.3125 C-5.17059424 2.04364039 -6.15742885 2.76951913 -8 5 C-8 4.34 -8 3.68 -8 3 C-8.66 2.67 -9.32 2.34 -10 2 C-6.3558226 -0.4294516 -4.28758728 -0.16179575 0 0 Z " fill="#696969" transform="translate(185,283)"/>
<path d="M0 0 C0.99 0 1.98 0 3 0 C3.36923077 4.55384615 3.36923077 4.55384615 1.5 6.8125 C1.005 7.204375 0.51 7.59625 0 8 C0 5.36 0 2.72 0 0 Z " fill="#A8974A" transform="translate(449,192)"/>
</svg>